<svg width="36" height="35" viewBox="0 0 36 35" fill="none" xmlns="http://www.w3.org/2000/svg">
<path d="M28.8748 9.625C29.9688 9.625 31.0181 9.11797 31.7917 8.21545C32.5654 7.31293 33 6.08885 33 4.8125C33 3.53615 32.5654 2.31207 31.7917 1.40955C31.0181 0.50703 29.9688 0 28.8748 0C27.7807 0 26.7314 0.50703 25.9578 1.40955C25.1842 2.31207 24.7495 3.53615 24.7495 4.8125C24.7495 6.08885 25.1842 7.31293 25.9578 8.21545C26.7314 9.11797 27.7807 9.625 28.8748 9.625ZM23.569 7C23.2285 5.87698 23.157 4.66693 23.362 3.5H4.49842L4.32291 3.51225C3.94325 3.56493 3.59515 3.78475 3.34975 4.12679C3.10436 4.46884 2.98017 4.90729 3.00258 5.35256C3.02499 5.79783 3.19229 6.21632 3.47031 6.52252C3.74833 6.82871 4.11608 6.99951 4.49842 7H23.569ZM31.4999 24.5H4.49842L4.32291 24.5122C3.94325 24.5649 3.59515 24.7847 3.34975 25.1268C3.10436 25.4688 2.98017 25.9073 3.00258 26.3526C3.02499 26.7978 3.19229 27.2163 3.47031 27.5225C3.74833 27.8287 4.11608 27.9995 4.49842 28H31.4999L31.6754 27.9878C32.0551 27.9351 32.4032 27.7153 32.6486 27.3732C32.894 27.0312 33.0182 26.5927 32.9958 26.1474C32.9733 25.7022 32.806 25.2837 32.528 24.9775C32.25 24.6713 31.8823 24.5005 31.4999 24.5ZM4.49842 14L31.4999 13.9965C31.8823 13.997 32.25 14.1678 32.528 14.474C32.806 14.7802 32.9733 15.1987 32.9958 15.6439C33.0182 16.0892 32.894 16.5277 32.6486 16.8697C32.4032 17.2118 32.0551 17.4316 31.6754 17.4843L31.4999 17.4965L4.49842 17.5C4.11608 17.4995 3.74833 17.3287 3.47031 17.0225C3.19229 16.7163 3.02499 16.2978 3.00258 15.8526C2.98017 15.4073 3.10436 14.9688 3.34975 14.6268C3.59515 14.2847 3.94325 14.0649 4.32291 14.0122L4.49842 14Z" fill="#0E1012"/>
</svg>
